<svg width="94" height="140" viewBox="0 0 94 140" fill="none" xmlns="http://www.w3.org/2000/svg">
<path d="M5 38.275V19.2759C5 11.3915 11.3915 5 19.2759 5H74.7241C82.6085 5 89 11.3915 89 19.2759V120.724C89 128.608 82.6085 135 74.7241 135H19.2759C11.3915 135 5 128.608 5 120.724V105.869C5 100.612 9.26102 96.3514 14.5172 96.3514H19.4" stroke="#25231F" stroke-width="8.23607" stroke-linecap="round"/>
<path d="M47.3461 61.7662C48.6831 63.0622 50.4415 63.7103 52.1971 63.7103C53.9527 63.7103 55.7111 63.0622 57.0482 61.7662L62.1296 56.8463C67.6043 51.423 67.6043 42.6011 62.1296 37.1805C59.4751 34.5551 55.9471 33.1089 52.1971 33.1089C48.4472 33.1089 44.9191 34.5551 42.2647 37.1805C36.79 42.6038 36.79 51.4258 42.2871 56.8685L47.3461 61.7662ZM46.2365 41.1159C47.8292 39.539 49.9443 38.6713 52.1971 38.6713C54.4499 38.6713 56.5651 39.539 58.1577 41.1159C61.4414 44.3699 61.4414 49.6625 58.1802 52.8942L53.1213 57.7919C52.6101 58.2869 51.7842 58.2869 51.2758 57.7919L46.2393 52.9165C42.9557 49.6625 42.9529 44.3699 46.2365 41.1159ZM30.7395 64.642C31.335 63.3515 32.1664 62.1973 33.2086 61.2128C34.3265 60.1559 36.1102 60.1948 37.1804 61.3073C38.2507 62.417 38.2085 64.1775 37.0849 65.2399C36.5625 65.7322 36.1496 66.3107 35.8518 66.9559C35.3799 67.9794 34.3602 68.5829 33.2957 68.5829C32.9052 68.5829 32.5091 68.5022 32.1299 68.3298C30.7198 67.6929 30.0934 66.0381 30.7395 64.642ZM38.1523 97.0761C38.1523 98.6113 36.8939 99.8573 35.3434 99.8573H29.7255C28.1749 99.8573 26.9165 98.6113 26.9165 97.0761C26.9165 95.5409 28.1749 94.2949 29.7255 94.2949H35.3434C36.8939 94.2949 38.1523 95.5409 38.1523 97.0761ZM57.6858 81.2679C57.2954 81.2679 56.8965 81.1872 56.5173 81.0148C55.6016 80.6004 54.6185 80.389 53.596 80.389H52.1943C50.6438 80.389 49.3854 79.143 49.3854 77.6078C49.3854 76.0726 50.6438 74.8266 52.1943 74.8266H53.5988C55.4331 74.8266 57.1999 75.2077 58.8544 75.9586C60.2645 76.5955 60.8852 78.2475 60.2392 79.6437C59.7673 80.6644 58.7504 81.2679 57.6858 81.2679ZM43.7703 77.6078C43.7703 79.143 42.5147 80.389 40.9613 80.389C38.4501 80.389 35.9838 79.5435 34.0147 78.0083C32.7957 77.0572 32.585 75.3078 33.5456 74.1035C34.5063 72.8965 36.276 72.6879 37.4894 73.6391C38.4866 74.415 39.686 74.8266 40.9585 74.8266C42.509 74.8266 43.7703 76.0726 43.7703 77.6078ZM66.2419 87.342C66.2419 89.756 65.5453 92.095 64.2335 94.1114C63.697 94.9346 62.7925 95.3852 61.8712 95.3852C61.3487 95.3852 60.8234 95.2433 60.3515 94.9402C59.0482 94.1086 58.6718 92.387 59.5145 91.0966C60.242 89.9813 60.6268 88.6797 60.6268 87.3392C60.6268 85.804 61.8852 84.558 63.4358 84.558C64.9891 84.558 66.2419 85.8068 66.2419 87.342ZM55.0061 97.0761C55.0061 98.6113 53.7477 99.8573 52.1971 99.8573H46.5792C45.0287 99.8573 43.7703 98.6113 43.7703 97.0761C43.7703 95.5409 45.0287 94.2949 46.5792 94.2949H52.1971C53.7477 94.2949 55.0061 95.5409 55.0061 97.0761ZM47.9837 47.0148C47.9837 44.712 49.8713 42.843 52.1971 42.843C54.523 42.843 56.4106 44.712 56.4106 47.0148C56.4106 49.3176 54.523 51.1866 52.1971 51.1866C49.8713 51.1866 47.9837 49.3176 47.9837 47.0148Z" fill="#25231F"/>
</svg>
