<svg width="664" height="143" viewBox="0 0 664 143" fill="none" xmlns="http://www.w3.org/2000/svg">
<path d="M19.3657 36.7837V106H6.827V36.7837H19.3657ZM27.8081 47.2946V36.7837H83.0324V47.2946H61.6389V106H49.2016V47.2946H27.8081ZM104.123 36.7837V106H91.5847V36.7837H104.123ZM172.488 36.7837V106H161.335L128.721 58.8532H128.146V106H115.608V36.7837H126.828L159.409 83.9643H160.017V36.7837H172.488ZM184.057 106V36.7837H229.074V47.2946H196.595V66.0857H226.742V76.5966H196.595V95.4891H229.345V106H184.057ZM239.773 106V36.7837H265.729C271.046 36.7837 275.507 37.7075 279.112 39.5551C282.74 41.4026 285.477 43.9937 287.325 47.3284C289.195 50.6405 290.13 54.5046 290.13 58.9208C290.13 63.3594 289.184 67.2123 287.291 70.4793C285.421 73.7238 282.661 76.2361 279.011 78.0161C275.361 79.7735 270.877 80.6522 265.56 80.6522H247.073V70.2428H263.87C266.979 70.2428 269.525 69.8147 271.508 68.9585C273.491 68.0797 274.955 66.8067 275.902 65.1394C276.87 63.4496 277.355 61.3767 277.355 58.9208C277.355 56.4648 276.87 54.3694 275.902 52.6345C274.933 50.8771 273.457 49.5477 271.474 48.6465C269.491 47.7227 266.934 47.2608 263.802 47.2608H252.311V106H239.773ZM275.53 74.6364L292.665 106H278.673L261.842 74.6364H275.53Z" fill="#FEFEFE"/>
<path d="M424.953 106L436.444 36.7837H481.461L479.704 47.2946H447.225L444.116 66.0857H474.263L472.505 76.5966H442.358L439.249 95.4891H471.998L470.241 106H424.953ZM489.557 106H476.174L512.033 36.7837H527.512L540.422 106H527.038L517.744 50.9785H517.203L489.557 106ZM494.492 78.861H530.993L529.303 88.9325H492.802L494.492 78.861ZM592.192 56.1494C592.282 53.0175 591.325 50.618 589.319 48.9506C587.337 47.2833 584.486 46.4497 580.769 46.4497C578.155 46.4497 575.846 46.844 573.84 47.6326C571.858 48.3986 570.258 49.4689 569.041 50.8433C567.825 52.1951 567.07 53.7385 566.777 55.4735C566.529 56.8929 566.653 58.1322 567.149 59.1911C567.644 60.2501 568.399 61.1514 569.413 61.8949C570.449 62.6384 571.621 63.258 572.928 63.7537C574.257 64.2494 575.609 64.6662 576.984 65.0042L583.202 66.6265C585.681 67.2348 588.046 68.0572 590.3 69.0937C592.553 70.1076 594.502 71.4144 596.146 73.0141C597.814 74.5913 599.03 76.4952 599.797 78.7258C600.563 80.9564 600.687 83.57 600.168 86.5667C599.492 90.6224 597.859 94.1936 595.268 97.2804C592.699 100.345 589.319 102.744 585.129 104.479C580.96 106.192 576.105 107.048 570.562 107.048C565.2 107.048 560.671 106.214 556.976 104.547C553.281 102.857 550.577 100.412 548.864 97.2128C547.175 94.0133 546.634 90.1267 547.242 85.5528H559.578C559.33 87.9637 559.725 89.9689 560.761 91.5687C561.82 93.1684 563.341 94.3626 565.324 95.1512C567.306 95.9398 569.605 96.3341 572.218 96.3341C574.944 96.3341 577.412 95.9285 579.62 95.1174C581.828 94.2837 583.63 93.1346 585.027 91.6701C586.447 90.183 587.314 88.4481 587.63 86.4653C587.945 84.6853 587.686 83.1983 586.852 82.0041C586.019 80.81 584.723 79.8186 582.966 79.03C581.231 78.2189 579.158 77.4978 576.747 76.867L569.244 74.8391C563.814 73.3521 559.691 71.1215 556.874 68.1473C554.08 65.1732 553.089 61.2077 553.9 56.2508C554.576 52.1501 556.277 48.5789 559.004 45.5371C561.73 42.4729 565.143 40.0958 569.244 38.406C573.345 36.6936 577.828 35.8374 582.695 35.8374C587.607 35.8374 591.764 36.6936 595.166 38.406C598.591 40.1183 601.092 42.5067 602.669 45.5709C604.269 48.6127 604.798 52.1388 604.258 56.1494H592.192ZM606.042 106L617.533 36.7837H662.551L660.793 47.2946H628.314L625.205 66.0857H655.352L653.595 76.5966H623.448L620.338 95.4891H653.088L651.33 106H606.042Z" fill="#FEFEFE"/>
<path d="M315.829 38.0677V19.0332C315.829 11.1488 322.22 4.75732 330.104 4.75732H385.293C393.177 4.75732 399.569 11.1488 399.569 19.0332V120.619C399.569 128.504 393.177 134.895 385.293 134.895H330.104C322.22 134.895 315.829 128.504 315.829 120.619V105.723C315.829 100.467 320.09 96.2056 325.346 96.2056H330.184" stroke="#FEFEFE" stroke-width="8.23607" stroke-linecap="round"/>
<path d="M358.044 61.5837C359.377 62.8811 361.129 63.5298 362.88 63.5298C364.63 63.5298 366.383 62.8811 367.716 61.5837L372.781 56.6586C378.239 51.2295 378.239 42.3982 372.781 36.972C370.135 34.3437 366.618 32.896 362.88 32.896C359.141 32.896 355.624 34.3437 352.978 36.972C347.52 42.401 347.52 51.2323 353 56.6809L358.044 61.5837ZM356.937 40.9115C358.525 39.3329 360.634 38.4643 362.88 38.4643C365.125 38.4643 367.234 39.3329 368.822 40.9115C372.095 44.169 372.095 49.4672 368.844 52.7023L363.801 57.6052C363.291 58.1008 362.468 58.1008 361.961 57.6052L356.94 52.7246C353.667 49.4672 353.664 44.169 356.937 40.9115ZM341.488 64.4625C342.082 63.1707 342.911 62.0153 343.95 61.0297C345.064 59.9717 346.843 60.0107 347.909 61.1243C348.976 62.2352 348.934 63.9976 347.814 65.0611C347.293 65.5539 346.882 66.133 346.585 66.7789C346.114 67.8035 345.098 68.4076 344.037 68.4076C343.647 68.4076 343.253 68.3269 342.875 68.1543C341.469 67.5167 340.844 65.8601 341.488 64.4625ZM348.878 96.9311C348.878 98.4679 347.624 99.7152 346.078 99.7152H340.478C338.932 99.7152 337.677 98.4679 337.677 96.9311C337.677 95.3943 338.932 94.147 340.478 94.147H346.078C347.624 94.147 348.878 95.3943 348.878 96.9311ZM368.351 81.1061C367.962 81.1061 367.564 81.0253 367.186 80.8527C366.274 80.4379 365.293 80.2263 364.274 80.2263H362.877C361.331 80.2263 360.077 78.979 360.077 77.4422C360.077 75.9053 361.331 74.658 362.877 74.658H364.277C366.106 74.658 367.867 75.0394 369.516 75.7912C370.922 76.4287 371.541 78.0825 370.897 79.4801C370.426 80.5019 369.413 81.1061 368.351 81.1061ZM354.479 77.4422C354.479 78.979 353.227 80.2263 351.679 80.2263C349.175 80.2263 346.717 79.3799 344.754 77.8431C343.538 76.8909 343.328 75.1397 344.286 73.9341C345.244 72.7258 347.008 72.517 348.217 73.4692C349.212 74.246 350.407 74.658 351.676 74.658C353.222 74.658 354.479 75.9053 354.479 77.4422ZM376.881 87.1866C376.881 89.6032 376.187 91.9447 374.879 93.9632C374.344 94.7873 373.442 95.2383 372.524 95.2383C372.003 95.2383 371.479 95.0963 371.009 94.7929C369.709 93.9604 369.334 92.237 370.174 90.9452C370.9 89.8288 371.283 88.5258 371.283 87.1838C371.283 85.647 372.538 84.3997 374.084 84.3997C375.632 84.3997 376.881 85.6498 376.881 87.1866ZM365.68 96.9311C365.68 98.4679 364.425 99.7152 362.88 99.7152H357.279C355.733 99.7152 354.479 98.4679 354.479 96.9311C354.479 95.3943 355.733 94.147 357.279 94.147H362.88C364.425 94.147 365.68 95.3943 365.68 96.9311ZM358.679 46.8167C358.679 44.5114 360.561 42.6405 362.88 42.6405C365.198 42.6405 367.08 44.5114 367.08 46.8167C367.08 49.1219 365.198 50.9929 362.88 50.9929C360.561 50.9929 358.679 49.1219 358.679 46.8167Z" fill="#FEFEFE"/>
</svg>
